%TF.GenerationSoftware,KiCad,Pcbnew,6.0.2+dfsg-1*%
%TF.CreationDate,2024-11-18T22:50:37+00:00*%
%TF.ProjectId,kb,6b622e6b-6963-4616-945f-706362585858,rev?*%
%TF.SameCoordinates,Original*%
%TF.FileFunction,Soldermask,Top*%
%TF.FilePolarity,Negative*%
%FSLAX46Y46*%
G04 Gerber Fmt 4.6, Leading zero omitted, Abs format (unit mm)*
G04 Created by KiCad (PCBNEW 6.0.2+dfsg-1) date 2024-11-18 22:50:37*
%MOMM*%
%LPD*%
G01*
G04 APERTURE LIST*
%ADD10C,1.600000*%
%ADD11R,2.200000X2.200000*%
%ADD12O,2.200000X2.200000*%
%ADD13C,2.700000*%
%ADD14O,1.600000X1.600000*%
%ADD15C,4.000000*%
%ADD16C,1.700000*%
%ADD17C,2.200000*%
%ADD18R,1.700000X1.700000*%
%ADD19O,1.700000X1.700000*%
%ADD20C,3.050000*%
%ADD21R,1.600000X1.600000*%
%ADD22R,1.200000X1.200000*%
%ADD23C,1.200000*%
%ADD24R,1.800000X1.800000*%
%ADD25C,1.800000*%
%ADD26O,3.500000X3.500000*%
%ADD27R,1.905000X2.000000*%
%ADD28O,1.905000X2.000000*%
%ADD29R,1.350000X1.350000*%
%ADD30O,1.350000X1.350000*%
%ADD31R,4.000000X2.000000*%
%ADD32O,3.300000X2.000000*%
%ADD33O,2.000000X3.500000*%
G04 APERTURE END LIST*
D10*
%TO.C,C3*%
X147066000Y-45212000D03*
X142066000Y-45212000D03*
%TD*%
D11*
%TO.C,D12*%
X183134000Y-36576000D03*
D12*
X185674000Y-36576000D03*
%TD*%
D13*
%TO.C,H2*%
X136398000Y-160528000D03*
%TD*%
D10*
%TO.C,R15*%
X168656000Y-26924000D03*
D14*
X161036000Y-26924000D03*
%TD*%
D13*
%TO.C,H5*%
X281686000Y-15748000D03*
%TD*%
D15*
%TO.C,SW23*%
X137668000Y-116332000D03*
D16*
X132588000Y-116332000D03*
X142748000Y-116332000D03*
D17*
X140208000Y-111252000D03*
X133858000Y-113792000D03*
%TD*%
D10*
%TO.C,R8*%
X185166000Y-13716000D03*
D14*
X177546000Y-13716000D03*
%TD*%
D16*
%TO.C,SW39*%
X93980000Y-116332000D03*
D15*
X99060000Y-116332000D03*
D16*
X104140000Y-116332000D03*
D17*
X101600000Y-111252000D03*
X95250000Y-113792000D03*
%TD*%
D11*
%TO.C,D26*%
X37338000Y-43688000D03*
D12*
X39878000Y-43688000D03*
%TD*%
D11*
%TO.C,D34*%
X137668000Y-34853766D03*
D12*
X137668000Y-37393766D03*
%TD*%
D11*
%TO.C,D28*%
X22606000Y-24836234D03*
D12*
X22606000Y-22296234D03*
%TD*%
D18*
%TO.C,J3*%
X276128000Y-22942000D03*
D19*
X273588000Y-22942000D03*
%TD*%
D15*
%TO.C,SW32*%
X191008000Y-97028000D03*
D16*
X196088000Y-97028000D03*
X185928000Y-97028000D03*
D17*
X193548000Y-91948000D03*
X187198000Y-94488000D03*
%TD*%
D15*
%TO.C,SW20*%
X152400000Y-97028000D03*
D16*
X147320000Y-97028000D03*
X157480000Y-97028000D03*
D17*
X154940000Y-91948000D03*
X148590000Y-94488000D03*
%TD*%
D11*
%TO.C,D30*%
X153670000Y-43997766D03*
D12*
X153670000Y-46537766D03*
%TD*%
D13*
%TO.C,H1*%
X16002000Y-161036000D03*
%TD*%
D16*
%TO.C,SW28*%
X128016000Y-97028000D03*
X138176000Y-97028000D03*
D15*
X133096000Y-97028000D03*
D17*
X135636000Y-91948000D03*
X129286000Y-94488000D03*
%TD*%
D15*
%TO.C,SW24*%
X171704000Y-97028000D03*
D16*
X176784000Y-97028000D03*
X166624000Y-97028000D03*
D17*
X174244000Y-91948000D03*
X167894000Y-94488000D03*
%TD*%
D13*
%TO.C,H3*%
X280670000Y-160528000D03*
%TD*%
D11*
%TO.C,D45*%
X251515766Y-32004000D03*
D12*
X254055766Y-32004000D03*
%TD*%
D16*
%TO.C,SW55*%
X39116000Y-116332000D03*
X28956000Y-116332000D03*
D15*
X34036000Y-116332000D03*
D17*
X36576000Y-111252000D03*
X30226000Y-113792000D03*
%TD*%
D10*
%TO.C,C5*%
X204430000Y-47244000D03*
X199430000Y-47244000D03*
%TD*%
D11*
%TO.C,D11*%
X181864000Y-43489766D03*
D12*
X181864000Y-46029766D03*
%TD*%
D16*
%TO.C,SW1*%
X209042000Y-154940000D03*
D15*
X214122000Y-154940000D03*
D16*
X219202000Y-154940000D03*
D17*
X216662000Y-149860000D03*
X210312000Y-152400000D03*
%TD*%
D11*
%TO.C,D29*%
X133858000Y-43743766D03*
D12*
X133858000Y-46283766D03*
%TD*%
D10*
%TO.C,R2*%
X170434000Y-23368000D03*
D14*
X162814000Y-23368000D03*
%TD*%
D16*
%TO.C,SW37*%
X205740000Y-58420000D03*
X195580000Y-58420000D03*
D15*
X200660000Y-58420000D03*
D17*
X203200000Y-53340000D03*
X196850000Y-55880000D03*
%TD*%
D11*
%TO.C,D18*%
X14986000Y-80716234D03*
D12*
X14986000Y-78176234D03*
%TD*%
D16*
%TO.C,SW54*%
X239014000Y-77724000D03*
X249174000Y-77724000D03*
D15*
X244094000Y-77724000D03*
D17*
X246634000Y-72644000D03*
X240284000Y-75184000D03*
%TD*%
D15*
%TO.C,SW57*%
X135128000Y-135570000D03*
D20*
X185128000Y-128570000D03*
D16*
X130048000Y-135570000D03*
D20*
X85128000Y-128570000D03*
D15*
X85128000Y-143810000D03*
D16*
X140208000Y-135570000D03*
D15*
X185128000Y-143810000D03*
D17*
X137668000Y-130490000D03*
X131318000Y-133030000D03*
%TD*%
D15*
%TO.C,SW17*%
X65532000Y-135636000D03*
D16*
X60452000Y-135636000D03*
X70612000Y-135636000D03*
D17*
X68072000Y-130556000D03*
X61722000Y-133096000D03*
%TD*%
D11*
%TO.C,D35*%
X37393766Y-47498000D03*
D12*
X39933766Y-47498000D03*
%TD*%
D10*
%TO.C,R3*%
X268224000Y-30988000D03*
D14*
X268224000Y-38608000D03*
%TD*%
D15*
%TO.C,SW47*%
X79756000Y-116332000D03*
D16*
X74676000Y-116332000D03*
X84836000Y-116332000D03*
D17*
X82296000Y-111252000D03*
X75946000Y-113792000D03*
%TD*%
D16*
%TO.C,SW25*%
X151892000Y-116332000D03*
X162052000Y-116332000D03*
D15*
X156972000Y-116332000D03*
D17*
X159512000Y-111252000D03*
X153162000Y-113792000D03*
%TD*%
D11*
%TO.C,D16*%
X245110000Y-46482000D03*
D12*
X247650000Y-46482000D03*
%TD*%
D15*
%TO.C,SW29*%
X181356000Y-58420000D03*
D16*
X186436000Y-58420000D03*
X176276000Y-58420000D03*
D17*
X183896000Y-53340000D03*
X177546000Y-55880000D03*
%TD*%
D16*
%TO.C,SW7*%
X260858000Y-58420000D03*
X271018000Y-58420000D03*
D15*
X265938000Y-58420000D03*
D17*
X268478000Y-53340000D03*
X262128000Y-55880000D03*
%TD*%
D21*
%TO.C,U3*%
X25410000Y-26665000D03*
D14*
X25410000Y-29205000D03*
X25410000Y-31745000D03*
X25410000Y-34285000D03*
X25410000Y-36825000D03*
X25410000Y-39365000D03*
X25410000Y-41905000D03*
X33030000Y-41905000D03*
X33030000Y-39365000D03*
X33030000Y-36825000D03*
X33030000Y-34285000D03*
X33030000Y-31745000D03*
X33030000Y-29205000D03*
X33030000Y-26665000D03*
%TD*%
D15*
%TO.C,SW35*%
X108966000Y-77724000D03*
D16*
X114046000Y-77724000D03*
X103886000Y-77724000D03*
D17*
X111506000Y-72644000D03*
X105156000Y-75184000D03*
%TD*%
D16*
%TO.C,SW49*%
X32004000Y-135636000D03*
D15*
X26924000Y-135636000D03*
D16*
X21844000Y-135636000D03*
D17*
X29464000Y-130556000D03*
X23114000Y-133096000D03*
%TD*%
D22*
%TO.C,C2*%
X114768600Y-39878000D03*
D23*
X113268600Y-39878000D03*
%TD*%
D16*
%TO.C,SW27*%
X133350000Y-77724000D03*
D15*
X128270000Y-77724000D03*
D16*
X123190000Y-77724000D03*
D17*
X130810000Y-72644000D03*
X124460000Y-75184000D03*
%TD*%
D15*
%TO.C,SW60*%
X248920000Y-97028000D03*
D16*
X254000000Y-97028000D03*
X243840000Y-97028000D03*
D17*
X251460000Y-91948000D03*
X245110000Y-94488000D03*
%TD*%
D11*
%TO.C,D41*%
X251460000Y-17780000D03*
D12*
X254000000Y-17780000D03*
%TD*%
D21*
%TO.C,U4*%
X141274000Y-26919000D03*
D14*
X141274000Y-29459000D03*
X141274000Y-31999000D03*
X141274000Y-34539000D03*
X141274000Y-37079000D03*
X141274000Y-39619000D03*
X141274000Y-42159000D03*
X148894000Y-42159000D03*
X148894000Y-39619000D03*
X148894000Y-37079000D03*
X148894000Y-34539000D03*
X148894000Y-31999000D03*
X148894000Y-29459000D03*
X148894000Y-26919000D03*
%TD*%
D16*
%TO.C,SW45*%
X225044000Y-58420000D03*
D15*
X219964000Y-58420000D03*
D16*
X214884000Y-58420000D03*
D17*
X222504000Y-53340000D03*
X216154000Y-55880000D03*
%TD*%
D10*
%TO.C,C6*%
X177252000Y-46482000D03*
X172252000Y-46482000D03*
%TD*%
D11*
%TO.C,D15*%
X251515766Y-46228000D03*
D12*
X254055766Y-46228000D03*
%TD*%
D11*
%TO.C,D10*%
X163631766Y-45212000D03*
D12*
X166171766Y-45212000D03*
%TD*%
D16*
%TO.C,SW16*%
X65532000Y-116332000D03*
D15*
X60452000Y-116332000D03*
D16*
X55372000Y-116332000D03*
D17*
X62992000Y-111252000D03*
X56642000Y-113792000D03*
%TD*%
D11*
%TO.C,D6*%
X187761766Y-13970000D03*
D12*
X190301766Y-13970000D03*
%TD*%
D15*
%TO.C,SW34*%
X104140000Y-58420000D03*
D16*
X109220000Y-58420000D03*
X99060000Y-58420000D03*
D17*
X106680000Y-53340000D03*
X100330000Y-55880000D03*
%TD*%
D10*
%TO.C,R4*%
X274574000Y-31242000D03*
D14*
X274574000Y-38862000D03*
%TD*%
D11*
%TO.C,D20*%
X163520234Y-41656000D03*
D12*
X166060234Y-41656000D03*
%TD*%
D11*
%TO.C,D13*%
X163576000Y-34544000D03*
D12*
X166116000Y-34544000D03*
%TD*%
D11*
%TO.C,D47*%
X251460000Y-39116000D03*
D12*
X254000000Y-39116000D03*
%TD*%
D11*
%TO.C,D42*%
X251515766Y-21336000D03*
D12*
X254055766Y-21336000D03*
%TD*%
D16*
%TO.C,SW50*%
X60452000Y-58420000D03*
X70612000Y-58420000D03*
D15*
X65532000Y-58420000D03*
D17*
X68072000Y-53340000D03*
X61722000Y-55880000D03*
%TD*%
D15*
%TO.C,SW59*%
X251244000Y-124572000D03*
D16*
X268224000Y-116332000D03*
D20*
X275044000Y-109332000D03*
X251244000Y-109332000D03*
D16*
X258064000Y-116332000D03*
D15*
X275044000Y-124572000D03*
X263144000Y-116332000D03*
D17*
X265684000Y-111252000D03*
X259334000Y-113792000D03*
%TD*%
D10*
%TO.C,C8*%
X81026000Y-20360000D03*
X81026000Y-25360000D03*
%TD*%
D13*
%TO.C,H9*%
X85090000Y-33274000D03*
%TD*%
D10*
%TO.C,C4*%
X30694000Y-44958000D03*
X25694000Y-44958000D03*
%TD*%
D11*
%TO.C,D43*%
X251515766Y-24892000D03*
D12*
X254055766Y-24892000D03*
%TD*%
D11*
%TO.C,D37*%
X137922000Y-23368000D03*
D12*
X137922000Y-25908000D03*
%TD*%
D16*
%TO.C,SW13*%
X41148000Y-135636000D03*
X51308000Y-135636000D03*
D15*
X46228000Y-135636000D03*
D17*
X48768000Y-130556000D03*
X42418000Y-133096000D03*
%TD*%
D11*
%TO.C,D33*%
X20574000Y-44958000D03*
D12*
X20574000Y-42418000D03*
%TD*%
D22*
%TO.C,C1*%
X106719401Y-39624000D03*
D23*
X108219401Y-39624000D03*
%TD*%
D15*
%TO.C,SW22*%
X166878000Y-77724000D03*
D16*
X161798000Y-77724000D03*
X171958000Y-77724000D03*
D17*
X169418000Y-72644000D03*
X163068000Y-75184000D03*
%TD*%
D11*
%TO.C,D48*%
X251460000Y-42672000D03*
D12*
X254000000Y-42672000D03*
%TD*%
D18*
%TO.C,J2*%
X213375000Y-13945000D03*
D19*
X215915000Y-13945000D03*
X218455000Y-13945000D03*
X220995000Y-13945000D03*
X223535000Y-13945000D03*
X226075000Y-13945000D03*
X228615000Y-13945000D03*
X231155000Y-13945000D03*
%TD*%
D13*
%TO.C,H6*%
X15748000Y-15748000D03*
%TD*%
D16*
%TO.C,SW10*%
X239268000Y-116332000D03*
D15*
X234188000Y-116332000D03*
D16*
X229108000Y-116332000D03*
D17*
X236728000Y-111252000D03*
X230378000Y-113792000D03*
%TD*%
D11*
%TO.C,D21*%
X163576000Y-30988000D03*
D12*
X166116000Y-30988000D03*
%TD*%
D10*
%TO.C,R10*%
X32512000Y-18288000D03*
D14*
X40132000Y-18288000D03*
%TD*%
D11*
%TO.C,D23*%
X14986000Y-96012000D03*
D12*
X14986000Y-93472000D03*
%TD*%
D24*
%TO.C,D38*%
X268224000Y-44963000D03*
D25*
X268224000Y-42423000D03*
%TD*%
D16*
%TO.C,SW9*%
X48260000Y-97028000D03*
X58420000Y-97028000D03*
D15*
X53340000Y-97028000D03*
D17*
X55880000Y-91948000D03*
X49530000Y-94488000D03*
%TD*%
D18*
%TO.C,J1*%
X65278000Y-15748000D03*
D19*
X67818000Y-15748000D03*
X70358000Y-15748000D03*
X72898000Y-15748000D03*
X75438000Y-15748000D03*
%TD*%
D10*
%TO.C,C7*%
X240070000Y-42164000D03*
X245070000Y-42164000D03*
%TD*%
D11*
%TO.C,D22*%
X20320000Y-39116000D03*
D12*
X20320000Y-36576000D03*
%TD*%
D16*
%TO.C,SW11*%
X209804000Y-116332000D03*
X219964000Y-116332000D03*
D15*
X214884000Y-116332000D03*
D17*
X217424000Y-111252000D03*
X211074000Y-113792000D03*
%TD*%
D13*
%TO.C,H4*%
X199898000Y-160528000D03*
%TD*%
D24*
%TO.C,D39*%
X274828000Y-44963000D03*
D25*
X274828000Y-42423000D03*
%TD*%
D15*
%TO.C,SW8*%
X29210000Y-77724000D03*
D16*
X24130000Y-77724000D03*
X34290000Y-77724000D03*
D17*
X31750000Y-72644000D03*
X25400000Y-75184000D03*
%TD*%
D15*
%TO.C,SW58*%
X274536000Y-143876000D03*
D16*
X267716000Y-135636000D03*
D15*
X262636000Y-135636000D03*
D20*
X250736000Y-128636000D03*
D16*
X257556000Y-135636000D03*
D20*
X274536000Y-128636000D03*
D15*
X250736000Y-143876000D03*
D17*
X265176000Y-130556000D03*
X258826000Y-133096000D03*
%TD*%
D16*
%TO.C,SW40*%
X215392000Y-97028000D03*
X205232000Y-97028000D03*
D15*
X210312000Y-97028000D03*
D17*
X212852000Y-91948000D03*
X206502000Y-94488000D03*
%TD*%
D10*
%TO.C,R13*%
X33020000Y-23368000D03*
D14*
X25400000Y-23368000D03*
%TD*%
D16*
%TO.C,SW38*%
X210566000Y-77724000D03*
D15*
X205486000Y-77724000D03*
D16*
X200406000Y-77724000D03*
D17*
X208026000Y-72644000D03*
X201676000Y-75184000D03*
%TD*%
D20*
%TO.C,SW56*%
X263510000Y-75476000D03*
D16*
X275590000Y-87376000D03*
D15*
X278750000Y-75476000D03*
D16*
X265430000Y-87376000D03*
D20*
X263510000Y-99276000D03*
D15*
X270510000Y-87376000D03*
X278750000Y-99276000D03*
D17*
X273050000Y-82296000D03*
X266700000Y-84836000D03*
%TD*%
D13*
%TO.C,H7*%
X167132000Y-15240000D03*
%TD*%
D26*
%TO.C,U5*%
X110744000Y-15602000D03*
D27*
X108204000Y-31402000D03*
D28*
X110744000Y-31402000D03*
X113284000Y-31402000D03*
%TD*%
D15*
%TO.C,SW43*%
X89662000Y-77724000D03*
D16*
X94742000Y-77724000D03*
X84582000Y-77724000D03*
D17*
X92202000Y-72644000D03*
X85852000Y-75184000D03*
%TD*%
D16*
%TO.C,SW42*%
X89916000Y-58420000D03*
D15*
X84836000Y-58420000D03*
D16*
X79756000Y-58420000D03*
D17*
X87376000Y-53340000D03*
X81026000Y-55880000D03*
%TD*%
D11*
%TO.C,D44*%
X251515766Y-28448000D03*
D12*
X254055766Y-28448000D03*
%TD*%
D13*
%TO.C,H8*%
X222758000Y-38100000D03*
%TD*%
D11*
%TO.C,D14*%
X163520234Y-38100000D03*
D12*
X166060234Y-38100000D03*
%TD*%
D15*
%TO.C,SW53*%
X239268000Y-58420000D03*
D16*
X244348000Y-58420000D03*
X234188000Y-58420000D03*
D17*
X241808000Y-53340000D03*
X235458000Y-55880000D03*
%TD*%
D11*
%TO.C,D3*%
X211074000Y-43942000D03*
D12*
X211074000Y-46482000D03*
%TD*%
D11*
%TO.C,D46*%
X251460000Y-35560000D03*
D12*
X254000000Y-35560000D03*
%TD*%
D10*
%TO.C,R9*%
X185166000Y-20320000D03*
D14*
X177546000Y-20320000D03*
%TD*%
D11*
%TO.C,D2*%
X185674000Y-43489766D03*
D12*
X185674000Y-46029766D03*
%TD*%
D16*
%TO.C,SW51*%
X75438000Y-77724000D03*
D15*
X70358000Y-77724000D03*
D16*
X65278000Y-77724000D03*
D17*
X72898000Y-72644000D03*
X66548000Y-75184000D03*
%TD*%
D16*
%TO.C,SW5*%
X21844000Y-58420000D03*
D15*
X26924000Y-58420000D03*
D16*
X32004000Y-58420000D03*
D17*
X29464000Y-53340000D03*
X23114000Y-55880000D03*
%TD*%
D10*
%TO.C,R16*%
X131826000Y-17780000D03*
D14*
X131826000Y-25400000D03*
%TD*%
D11*
%TO.C,D8*%
X187761766Y-21082000D03*
D12*
X190301766Y-21082000D03*
%TD*%
D16*
%TO.C,SW18*%
X147828000Y-58420000D03*
X137668000Y-58420000D03*
D15*
X142748000Y-58420000D03*
D17*
X145288000Y-53340000D03*
X138938000Y-55880000D03*
%TD*%
D16*
%TO.C,SW31*%
X113284000Y-116332000D03*
D15*
X118364000Y-116332000D03*
D16*
X123444000Y-116332000D03*
D17*
X120904000Y-111252000D03*
X114554000Y-113792000D03*
%TD*%
D16*
%TO.C,SW36*%
X118872000Y-97028000D03*
X108712000Y-97028000D03*
D15*
X113792000Y-97028000D03*
D17*
X116332000Y-91948000D03*
X109982000Y-94488000D03*
%TD*%
D10*
%TO.C,R1*%
X162814000Y-20066000D03*
D14*
X170434000Y-20066000D03*
%TD*%
D11*
%TO.C,D31*%
X157226000Y-43997766D03*
D12*
X157226000Y-46537766D03*
%TD*%
D15*
%TO.C,SW30*%
X186182000Y-77724000D03*
D16*
X181102000Y-77724000D03*
X191262000Y-77724000D03*
D17*
X188722000Y-72644000D03*
X182372000Y-75184000D03*
%TD*%
D16*
%TO.C,SW6*%
X51308000Y-58420000D03*
X41148000Y-58420000D03*
D15*
X46228000Y-58420000D03*
D17*
X48768000Y-53340000D03*
X42418000Y-55880000D03*
%TD*%
D11*
%TO.C,D4*%
X194310000Y-43997766D03*
D12*
X194310000Y-46537766D03*
%TD*%
D16*
%TO.C,SW15*%
X34290000Y-97028000D03*
X24130000Y-97028000D03*
D15*
X29210000Y-97028000D03*
D17*
X31750000Y-91948000D03*
X25400000Y-94488000D03*
%TD*%
D16*
%TO.C,SW52*%
X80264000Y-97028000D03*
D15*
X75184000Y-97028000D03*
D16*
X70104000Y-97028000D03*
D17*
X77724000Y-91948000D03*
X71374000Y-94488000D03*
%TD*%
D15*
%TO.C,SW41*%
X195580000Y-116332000D03*
D16*
X190500000Y-116332000D03*
X200660000Y-116332000D03*
D17*
X198120000Y-111252000D03*
X191770000Y-113792000D03*
%TD*%
D11*
%TO.C,D27*%
X154940000Y-25400000D03*
D12*
X157480000Y-25400000D03*
%TD*%
D15*
%TO.C,SW19*%
X147574000Y-77724000D03*
D16*
X152654000Y-77724000D03*
X142494000Y-77724000D03*
D17*
X150114000Y-72644000D03*
X143764000Y-75184000D03*
%TD*%
D18*
%TO.C,J5*%
X207284000Y-22688000D03*
D19*
X204744000Y-22688000D03*
X202204000Y-22688000D03*
X199664000Y-22688000D03*
X197124000Y-22688000D03*
%TD*%
D21*
%TO.C,U7*%
X77973000Y-19060000D03*
D14*
X75433000Y-19060000D03*
X72893000Y-19060000D03*
X70353000Y-19060000D03*
X67813000Y-19060000D03*
X65273000Y-19060000D03*
X62733000Y-19060000D03*
X60193000Y-19060000D03*
X57653000Y-19060000D03*
X55113000Y-19060000D03*
X55113000Y-26680000D03*
X57653000Y-26680000D03*
X60193000Y-26680000D03*
X62733000Y-26680000D03*
X65273000Y-26680000D03*
X67813000Y-26680000D03*
X70353000Y-26680000D03*
X72893000Y-26680000D03*
X75433000Y-26680000D03*
X77973000Y-26680000D03*
%TD*%
D11*
%TO.C,D5*%
X233172000Y-43743766D03*
D12*
X233172000Y-46283766D03*
%TD*%
D16*
%TO.C,SW33*%
X171196000Y-116332000D03*
X181356000Y-116332000D03*
D15*
X176276000Y-116332000D03*
D17*
X178816000Y-111252000D03*
X172466000Y-113792000D03*
%TD*%
D21*
%TO.C,U6*%
X238770000Y-15753000D03*
D14*
X238770000Y-18293000D03*
X238770000Y-20833000D03*
X238770000Y-23373000D03*
X238770000Y-25913000D03*
X238770000Y-28453000D03*
X238770000Y-30993000D03*
X238770000Y-33533000D03*
X238770000Y-36073000D03*
X238770000Y-38613000D03*
X246390000Y-38613000D03*
X246390000Y-36073000D03*
X246390000Y-33533000D03*
X246390000Y-30993000D03*
X246390000Y-28453000D03*
X246390000Y-25913000D03*
X246390000Y-23373000D03*
X246390000Y-20833000D03*
X246390000Y-18293000D03*
X246390000Y-15753000D03*
%TD*%
D11*
%TO.C,D19*%
X155757766Y-20320000D03*
D12*
X158297766Y-20320000D03*
%TD*%
D29*
%TO.C,J4*%
X120904000Y-16764000D03*
D30*
X120904000Y-14764000D03*
%TD*%
D16*
%TO.C,SW2*%
X257810000Y-154940000D03*
X247650000Y-154940000D03*
D15*
X252730000Y-154940000D03*
D17*
X255270000Y-149860000D03*
X248920000Y-152400000D03*
%TD*%
D11*
%TO.C,D25*%
X14986000Y-102870000D03*
D12*
X14986000Y-100330000D03*
%TD*%
D10*
%TO.C,R5*%
X281432000Y-30988000D03*
D14*
X281432000Y-38608000D03*
%TD*%
D11*
%TO.C,D17*%
X14986000Y-74168000D03*
D12*
X14986000Y-71628000D03*
%TD*%
D16*
%TO.C,SW12*%
X204216000Y-135636000D03*
D15*
X209296000Y-135636000D03*
D16*
X214376000Y-135636000D03*
D17*
X211836000Y-130556000D03*
X205486000Y-133096000D03*
%TD*%
D21*
%TO.C,U1*%
X198120000Y-29210000D03*
D14*
X198120000Y-31750000D03*
X198120000Y-34290000D03*
X198120000Y-36830000D03*
X198120000Y-39370000D03*
X198120000Y-41910000D03*
X198120000Y-44450000D03*
X205740000Y-44450000D03*
X205740000Y-41910000D03*
X205740000Y-39370000D03*
X205740000Y-36830000D03*
X205740000Y-34290000D03*
X205740000Y-31750000D03*
X205740000Y-29210000D03*
%TD*%
D13*
%TO.C,H10*%
X70866000Y-160528000D03*
%TD*%
D10*
%TO.C,R11*%
X14478000Y-36322000D03*
D14*
X14478000Y-43942000D03*
%TD*%
D24*
%TO.C,D40*%
X281432000Y-44963000D03*
D25*
X281432000Y-42423000D03*
%TD*%
D11*
%TO.C,D1*%
X190500000Y-43997766D03*
D12*
X190500000Y-46537766D03*
%TD*%
D21*
%TO.C,RN1*%
X75692000Y-29464000D03*
D14*
X73152000Y-29464000D03*
X70612000Y-29464000D03*
X68072000Y-29464000D03*
X65532000Y-29464000D03*
X62992000Y-29464000D03*
%TD*%
D10*
%TO.C,R7*%
X185166000Y-17018000D03*
D14*
X177546000Y-17018000D03*
%TD*%
D16*
%TO.C,SW44*%
X89408000Y-97028000D03*
D15*
X94488000Y-97028000D03*
D16*
X99568000Y-97028000D03*
D17*
X97028000Y-91948000D03*
X90678000Y-94488000D03*
%TD*%
D21*
%TO.C,RN2*%
X258572000Y-18288000D03*
D14*
X258572000Y-20828000D03*
X258572000Y-23368000D03*
X258572000Y-25908000D03*
X258572000Y-28448000D03*
X258572000Y-30988000D03*
X258572000Y-33528000D03*
X258572000Y-36068000D03*
X258572000Y-38608000D03*
%TD*%
D16*
%TO.C,SW21*%
X167132000Y-58420000D03*
D15*
X162052000Y-58420000D03*
D16*
X156972000Y-58420000D03*
D17*
X164592000Y-53340000D03*
X158242000Y-55880000D03*
%TD*%
D16*
%TO.C,SW14*%
X45974000Y-77724000D03*
D15*
X51054000Y-77724000D03*
D16*
X56134000Y-77724000D03*
D17*
X53594000Y-72644000D03*
X47244000Y-75184000D03*
%TD*%
D10*
%TO.C,R14*%
X62992000Y-47498000D03*
D14*
X55372000Y-47498000D03*
%TD*%
D10*
%TO.C,R6*%
X177546000Y-23622000D03*
D14*
X185166000Y-23622000D03*
%TD*%
D16*
%TO.C,SW4*%
X238506000Y-154940000D03*
X228346000Y-154940000D03*
D15*
X233426000Y-154940000D03*
D17*
X235966000Y-149860000D03*
X229616000Y-152400000D03*
%TD*%
D11*
%TO.C,D7*%
X187761766Y-17526000D03*
D12*
X190301766Y-17526000D03*
%TD*%
D11*
%TO.C,D32*%
X37139766Y-32258000D03*
D12*
X39679766Y-32258000D03*
%TD*%
D10*
%TO.C,J6*%
X98552000Y-15296000D03*
D31*
X98552000Y-24296000D03*
D32*
X98552000Y-18296000D03*
D33*
X94052000Y-17296000D03*
X103052000Y-17296000D03*
%TD*%
D16*
%TO.C,SW46*%
X219710000Y-77724000D03*
X229870000Y-77724000D03*
D15*
X224790000Y-77724000D03*
D17*
X227330000Y-72644000D03*
X220980000Y-75184000D03*
%TD*%
D11*
%TO.C,D36*%
X137668000Y-41402000D03*
D12*
X137668000Y-43942000D03*
%TD*%
D21*
%TO.C,U2*%
X170952000Y-28443000D03*
D14*
X170952000Y-30983000D03*
X170952000Y-33523000D03*
X170952000Y-36063000D03*
X170952000Y-38603000D03*
X170952000Y-41143000D03*
X170952000Y-43683000D03*
X178572000Y-43683000D03*
X178572000Y-41143000D03*
X178572000Y-38603000D03*
X178572000Y-36063000D03*
X178572000Y-33523000D03*
X178572000Y-30983000D03*
X178572000Y-28443000D03*
%TD*%
D11*
%TO.C,D9*%
X187761766Y-24892000D03*
D12*
X190301766Y-24892000D03*
%TD*%
D16*
%TO.C,SW26*%
X118364000Y-58420000D03*
D15*
X123444000Y-58420000D03*
D16*
X128524000Y-58420000D03*
D17*
X125984000Y-53340000D03*
X119634000Y-55880000D03*
%TD*%
D11*
%TO.C,D24*%
X37084000Y-36068000D03*
D12*
X39624000Y-36068000D03*
%TD*%
D16*
%TO.C,SW48*%
X234696000Y-97028000D03*
D15*
X229616000Y-97028000D03*
D16*
X224536000Y-97028000D03*
D17*
X232156000Y-91948000D03*
X225806000Y-94488000D03*
%TD*%
D10*
%TO.C,R12*%
X118618000Y-35052000D03*
D14*
X126238000Y-35052000D03*
%TD*%
D16*
%TO.C,SW3*%
X228346000Y-135636000D03*
X238506000Y-135636000D03*
D15*
X233426000Y-135636000D03*
D17*
X235966000Y-130556000D03*
X229616000Y-133096000D03*
%TD*%
M02*
