M48
; DRILL file {KiCad 6.0.2+dfsg-1} date Mon 18 Nov 2024 22:50:28 GMT
; FORMAT={-:-/ absolute / inch / decimal}
; #@! TF.CreationDate,2024-11-18T22:50:28+00:00
; #@! TF.GenerationSoftware,Kicad,Pcbnew,6.0.2+dfsg-1
; #@! TF.FileFunction,NonPlated,1,2,NPTH
FMAT,2
INCH
; #@! TA.AperFunction,NonPlated,NPTH,ComponentDrill
T1C0.0630
; #@! TA.AperFunction,NonPlated,NPTH,ComponentDrill
T2C0.0669
; #@! TA.AperFunction,NonPlated,NPTH,ComponentDrill
T3C0.1063
; #@! TA.AperFunction,NonPlated,NPTH,ComponentDrill
T4C0.1201
; #@! TA.AperFunction,NonPlated,NPTH,ComponentDrill
T5C0.1378
; #@! TA.AperFunction,NonPlated,NPTH,ComponentDrill
T6C0.1575
%
G90
G05
T1
X3.88Y-0.6022
T2
X0.86Y-2.3
X0.86Y-5.34
X0.95Y-3.06
X0.95Y-3.82
X1.14Y-4.58
X1.26Y-2.3
X1.26Y-5.34
X1.35Y-3.06
X1.35Y-3.82
X1.54Y-4.58
X1.62Y-2.3
X1.62Y-5.34
X1.81Y-3.06
X1.9Y-3.82
X2.02Y-2.3
X2.02Y-5.34
X2.18Y-4.58
X2.21Y-3.06
X2.3Y-3.82
X2.38Y-2.3
X2.38Y-5.34
X2.57Y-3.06
X2.58Y-4.58
X2.76Y-3.82
X2.78Y-2.3
X2.78Y-5.34
X2.94Y-4.58
X2.97Y-3.06
X3.14Y-2.3
X3.16Y-3.82
X3.33Y-3.06
X3.34Y-4.58
X3.52Y-3.82
X3.54Y-2.3
X3.7Y-4.58
X3.73Y-3.06
X3.9Y-2.3
X3.92Y-3.82
X4.09Y-3.06
X4.1Y-4.58
X4.28Y-3.82
X4.3Y-2.3
X4.46Y-4.58
X4.49Y-3.06
X4.66Y-2.3
X4.68Y-3.82
X4.85Y-3.06
X4.86Y-4.58
X5.04Y-3.82
X5.06Y-2.3
X5.12Y-5.3374
X5.22Y-4.58
X5.25Y-3.06
X5.42Y-2.3
X5.44Y-3.82
X5.52Y-5.3374
X5.61Y-3.06
X5.62Y-4.58
X5.8Y-3.82
X5.82Y-2.3
X5.98Y-4.58
X6.01Y-3.06
X6.18Y-2.3
X6.2Y-3.82
X6.37Y-3.06
X6.38Y-4.58
X6.56Y-3.82
X6.58Y-2.3
X6.74Y-4.58
X6.77Y-3.06
X6.94Y-2.3
X6.96Y-3.82
X7.13Y-3.06
X7.14Y-4.58
X7.32Y-3.82
X7.34Y-2.3
X7.5Y-4.58
X7.53Y-3.06
X7.7Y-2.3
X7.72Y-3.82
X7.89Y-3.06
X7.9Y-4.58
X8.04Y-5.34
X8.08Y-3.82
X8.1Y-2.3
X8.23Y-6.1
X8.26Y-4.58
X8.29Y-3.06
X8.44Y-5.34
X8.46Y-2.3
X8.48Y-3.82
X8.63Y-6.1
X8.65Y-3.06
X8.66Y-4.58
X8.84Y-3.82
X8.86Y-2.3
X8.99Y-5.34
X8.99Y-6.1
X9.02Y-4.58
X9.05Y-3.06
X9.22Y-2.3
X9.24Y-3.82
X9.39Y-5.34
X9.39Y-6.1
X9.41Y-3.06
X9.42Y-4.58
X9.6Y-3.82
X9.62Y-2.3
X9.75Y-6.1
X9.81Y-3.06
X10.0Y-3.82
X10.14Y-5.34
X10.15Y-6.1
X10.16Y-4.58
X10.27Y-2.3
X10.45Y-3.44
X10.54Y-5.34
X10.56Y-4.58
X10.67Y-2.3
X10.85Y-3.44
T3
X0.62Y-0.62
X0.63Y-6.34
X2.79Y-6.32
X3.35Y-1.31
X5.37Y-6.32
X6.58Y-0.6
X7.87Y-6.32
X8.77Y-1.5
X11.05Y-6.32
X11.09Y-0.62
T4
X3.3515Y-5.0618
X7.2885Y-5.0618
X9.8715Y-5.0644
X9.8915Y-4.3044
X10.3744Y-2.9715
X10.3744Y-3.9085
X10.8085Y-5.0644
X10.8285Y-4.3044
T5
X4.36Y-0.6143
T6
X1.06Y-2.3
X1.06Y-5.34
X1.15Y-3.06
X1.15Y-3.82
X1.34Y-4.58
X1.82Y-2.3
X1.82Y-5.34
X2.01Y-3.06
X2.1Y-3.82
X2.38Y-4.58
X2.58Y-2.3
X2.58Y-5.34
X2.77Y-3.06
X2.96Y-3.82
X3.14Y-4.58
X3.34Y-2.3
X3.3515Y-5.6618
X3.53Y-3.06
X3.72Y-3.82
X3.9Y-4.58
X4.1Y-2.3
X4.29Y-3.06
X4.48Y-3.82
X4.66Y-4.58
X4.86Y-2.3
X5.05Y-3.06
X5.24Y-3.82
X5.32Y-5.3374
X5.42Y-4.58
X5.62Y-2.3
X5.81Y-3.06
X6.0Y-3.82
X6.18Y-4.58
X6.38Y-2.3
X6.57Y-3.06
X6.76Y-3.82
X6.94Y-4.58
X7.14Y-2.3
X7.2885Y-5.6618
X7.33Y-3.06
X7.52Y-3.82
X7.7Y-4.58
X7.9Y-2.3
X8.09Y-3.06
X8.24Y-5.34
X8.28Y-3.82
X8.43Y-6.1
X8.46Y-4.58
X8.66Y-2.3
X8.85Y-3.06
X9.04Y-3.82
X9.19Y-5.34
X9.19Y-6.1
X9.22Y-4.58
X9.42Y-2.3
X9.61Y-3.06
X9.8Y-3.82
X9.8715Y-5.6644
X9.8915Y-4.9044
X9.95Y-6.1
X10.34Y-5.34
X10.36Y-4.58
X10.47Y-2.3
X10.65Y-3.44
X10.8085Y-5.6644
X10.8285Y-4.9044
X10.9744Y-2.9715
X10.9744Y-3.9085
T0
M30
