M48
; DRILL file {KiCad 6.0.2+dfsg-1} date Mon 18 Nov 2024 22:50:28 GMT
; FORMAT={-:-/ absolute / inch / decimal}
; #@! TF.CreationDate,2024-11-18T22:50:28+00:00
; #@! TF.GenerationSoftware,Kicad,Pcbnew,6.0.2+dfsg-1
; #@! TF.FileFunction,Plated,1,2,PTH
FMAT,2
INCH
; #@! TA.AperFunction,Plated,PTH,ViaDrill
T1C0.0157
; #@! TA.AperFunction,Plated,PTH,ComponentDrill
T2C0.0236
; #@! TA.AperFunction,Plated,PTH,ComponentDrill
T3C0.0315
; #@! TA.AperFunction,Plated,PTH,ComponentDrill
T4C0.0354
; #@! TA.AperFunction,Plated,PTH,ComponentDrill
T5C0.0394
; #@! TA.AperFunction,Plated,PTH,ComponentDrill
T6C0.0433
; #@! TA.AperFunction,Plated,PTH,ComponentDrill
T7C0.0472
; #@! TA.AperFunction,Plated,PTH,ComponentDrill
T8C0.0591
%
G90
G05
T1
X0.53Y-3.28
X0.61Y-2.46
X0.6867Y-3.24
X0.69Y-3.77
X0.7994Y-3.5806
X0.8041Y-2.5032
X0.81Y-3.45
X0.84Y-1.09
X0.86Y-3.11
X1.01Y-2.1
X1.02Y-2.86
X1.02Y-4.68
X1.08Y-3.98
X1.0898Y-1.4498
X1.16Y-1.33
X1.17Y-1.04
X1.2517Y-1.61
X1.26Y-3.17
X1.31Y-1.91
X1.39Y-2.51
X1.42Y-3.12
X1.43Y-3.85
X1.47Y-3.16
X1.47Y-3.29
X1.5034Y-3.77
X1.52Y-2.92
X1.53Y-3.0
X1.59Y-1.13
X1.62Y-1.59
X1.63Y-2.42
X1.71Y-3.98
X1.72Y-0.88
X1.72Y-4.94
X1.74Y-2.84
X1.75Y-1.59
X1.8Y-1.87
X1.82Y-3.25
X1.87Y-1.72
X1.8806Y-1.2918
X1.89Y-1.33
X2.07Y-1.7666
X2.08Y-1.48
X2.13Y-1.7666
X2.243Y-4.913
X2.27Y-0.97
X2.37Y-0.97
X2.46Y-1.27
X2.5Y-2.63
X2.57Y-0.91
X2.58Y-3.62
X2.73Y-4.86
X2.7351Y-1.3149
X2.92Y-2.01
X2.97Y-1.27
X3.01Y-2.33
X3.12Y-2.89
X3.24Y-4.76
X3.77Y-2.32
X3.78Y-2.04
X3.93Y-2.88
X4.02Y-4.77
X4.46Y-2.31
X4.69Y-2.92
X4.81Y-1.54
X4.87Y-1.11
X5.02Y-1.83
X5.03Y-1.66
X5.0339Y-1.6088
X5.0352Y-1.4706
X5.0352Y-1.51
X5.0352Y-1.56
X5.05Y-1.97
X5.07Y-2.05
X5.2178Y-1.4722
X5.2296Y-1.3931
X5.23Y-1.2
X5.2794Y-1.1106
X5.3Y-4.73
X5.31Y-1.52
X5.3166Y-0.87
X5.41Y-0.84
X5.48Y-1.19
X5.5932Y-1.9268
X5.61Y-0.97
X5.6504Y-1.0669
X5.6834Y-1.56
X5.7Y-1.07
X5.73Y-1.22
X5.73Y-1.39
X5.7467Y-1.1441
X5.7764Y-4.5264
X5.79Y-1.05
X5.7941Y-1.9741
X5.8Y-2.1334
X5.83Y-0.94
X5.87Y-1.77
X5.88Y-4.48
X5.89Y-4.93
X5.95Y-2.34
X5.9606Y-1.6106
X5.98Y-1.41
X6.01Y-1.52
X6.02Y-2.63
X6.07Y-2.05
X6.09Y-2.14
X6.152Y-1.5282
X6.1566Y-1.61
X6.18Y-1.22
X6.18Y-1.41
X6.22Y-2.47
X6.22Y-3.07
X6.24Y-1.46
X6.28Y-1.79
X6.315Y-1.8166
X6.315Y-2.0174
X6.32Y-1.54
X6.36Y-3.26
X6.3604Y-1.8101
X6.39Y-2.47
X6.43Y-4.2
X6.46Y-5.13
X6.49Y-1.8836
X6.4949Y-4.9651
X6.6Y-2.65
X6.6Y-3.26
X6.63Y-1.71
X6.64Y-1.57
X6.67Y-2.37
X6.7Y-1.856
X6.7768Y-1.9268
X6.78Y-1.57
X6.8Y-1.28
X6.81Y-2.14
X6.86Y-0.9
X6.86Y-1.11
X6.88Y-1.53
X6.91Y-1.3
X6.9167Y-1.34
X6.9759Y-1.9741
X7.0Y-2.88
X7.0Y-3.06
X7.15Y-1.57
X7.17Y-3.82
X7.17Y-4.48
X7.33Y-2.14
X7.4Y-1.856
X7.41Y-2.02
X7.44Y-1.34
X7.48Y-1.1864
X7.5Y-2.34
X7.53Y-1.44
X7.56Y-4.8834
X7.5658Y-1.2858
X7.58Y-2.13
X7.6Y-1.13
X7.6231Y-1.3231
X7.64Y-0.83
X7.64Y-1.55
X7.65Y-0.71
X7.65Y-3.07
X7.66Y-0.58
X7.6877Y-1.6613
X7.71Y-1.25
X7.74Y-1.53
X7.76Y-1.6
X7.89Y-1.36
X7.92Y-1.81
X7.92Y-4.25
X7.93Y-1.21
X7.94Y-1.49
X7.94Y-2.61
X7.9534Y-4.22
X7.98Y-3.76
X7.98Y-4.37
X7.9928Y-1.5172
X8.02Y-4.29
X8.0459Y-1.9741
X8.05Y-1.0
X8.06Y-2.88
X8.09Y-0.96
X8.14Y-1.08
X8.18Y-1.26
X8.2234Y-1.56
X8.31Y-2.05
X8.5Y-0.82
X8.5Y-2.09
X8.55Y-3.07
X8.6Y-0.92
X8.62Y-4.17
X8.7Y-1.0
X8.71Y-2.86
X8.71Y-3.8
X8.81Y-1.12
X8.86Y-4.86
X8.9Y-1.21
X9.01Y-1.33
X9.05Y-4.24
X9.09Y-2.12
X9.1Y-1.41
X9.18Y-2.8
X9.2Y-3.07
X9.37Y-3.84
X9.4Y-1.94
X9.5Y-5.0
X9.52Y-2.46
X9.53Y-1.92
X9.59Y-0.78
X9.5902Y-0.6202
X9.63Y-2.14
X9.73Y-2.6
X9.74Y-2.2
X9.82Y-2.11
X9.9Y-3.21
X9.92Y-2.95
X9.9334Y-3.16
X9.9386Y-2.1013
X9.9712Y-3.6688
X9.9767Y-2.0449
X10.31Y-1.23
X10.3769Y-1.2866
X10.39Y-5.51
X10.42Y-2.04
X11.07Y-3.34
X11.1141Y-1.9767
X11.1141Y-1.9374
X11.12Y-5.24
X11.1534Y-1.9767
X11.19Y-5.94
X11.1967Y-2.0233
T2
X4.2016Y-1.56
X4.2606Y-1.56
X4.4594Y-1.57
X4.5184Y-1.57
T3
X0.57Y-1.43
X0.57Y-1.73
X1.0Y-0.92
X1.0004Y-1.0498
X1.0004Y-1.1498
X1.0004Y-1.2498
X1.0004Y-1.3498
X1.0004Y-1.4498
X1.0004Y-1.5498
X1.0004Y-1.6498
X1.0116Y-1.77
X1.2084Y-1.77
X1.28Y-0.72
X1.3Y-0.92
X1.3004Y-1.0498
X1.3004Y-1.1498
X1.3004Y-1.2498
X1.3004Y-1.3498
X1.3004Y-1.4498
X1.3004Y-1.5498
X1.3004Y-1.6498
X1.58Y-0.72
X2.1698Y-0.7504
X2.1698Y-1.0504
X2.18Y-1.87
X2.2698Y-0.7504
X2.2698Y-1.0504
X2.3698Y-0.7504
X2.3698Y-1.0504
X2.4698Y-0.7504
X2.4698Y-1.0504
X2.48Y-1.16
X2.48Y-1.87
X2.5698Y-0.7504
X2.5698Y-1.0504
X2.58Y-1.16
X2.6698Y-0.7504
X2.6698Y-1.0504
X2.68Y-1.16
X2.7698Y-0.7504
X2.7698Y-1.0504
X2.78Y-1.16
X2.8698Y-0.7504
X2.8698Y-1.0504
X2.88Y-1.16
X2.9698Y-0.7504
X2.9698Y-1.0504
X2.98Y-1.16
X3.0698Y-0.7504
X3.0698Y-1.0504
X3.19Y-0.8016
X3.19Y-0.9984
X4.67Y-1.38
X4.76Y-0.5813
X4.76Y-0.66
X4.97Y-1.38
X5.19Y-0.7
X5.19Y-1.0
X5.562Y-1.0598
X5.562Y-1.1598
X5.562Y-1.2598
X5.562Y-1.3598
X5.562Y-1.4598
X5.562Y-1.5598
X5.562Y-1.6598
X5.5931Y-1.78
X5.79Y-1.78
X5.862Y-1.0598
X5.862Y-1.1598
X5.862Y-1.2598
X5.862Y-1.3598
X5.862Y-1.4598
X5.862Y-1.5598
X5.862Y-1.6598
X6.34Y-1.06
X6.41Y-0.79
X6.41Y-0.92
X6.64Y-1.06
X6.71Y-0.79
X6.71Y-0.92
X6.7304Y-1.1198
X6.7304Y-1.2198
X6.7304Y-1.3198
X6.7304Y-1.4198
X6.7304Y-1.5198
X6.7304Y-1.6198
X6.7304Y-1.7198
X6.7816Y-1.83
X6.9784Y-1.83
X6.99Y-0.54
X6.99Y-0.67
X6.99Y-0.8
X6.99Y-0.93
X7.0304Y-1.1198
X7.0304Y-1.2198
X7.0304Y-1.3198
X7.0304Y-1.4198
X7.0304Y-1.5198
X7.0304Y-1.6198
X7.0304Y-1.7198
X7.29Y-0.54
X7.29Y-0.67
X7.29Y-0.8
X7.29Y-0.93
X7.8Y-1.15
X7.8Y-1.25
X7.8Y-1.35
X7.8Y-1.45
X7.8Y-1.55
X7.8Y-1.65
X7.8Y-1.75
X7.8516Y-1.86
X8.0484Y-1.86
X8.1Y-1.15
X8.1Y-1.25
X8.1Y-1.35
X8.1Y-1.45
X8.1Y-1.55
X8.1Y-1.65
X8.1Y-1.75
X9.4004Y-0.6202
X9.4004Y-0.7202
X9.4004Y-0.8202
X9.4004Y-0.9202
X9.4004Y-1.0202
X9.4004Y-1.1202
X9.4004Y-1.2202
X9.4004Y-1.3202
X9.4004Y-1.4202
X9.4004Y-1.5202
X9.4516Y-1.66
X9.6484Y-1.66
X9.7004Y-0.6202
X9.7004Y-0.7202
X9.7004Y-0.8202
X9.7004Y-0.9202
X9.7004Y-1.0202
X9.7004Y-1.1202
X9.7004Y-1.2202
X9.7004Y-1.3202
X9.7004Y-1.4202
X9.7004Y-1.5202
X10.18Y-0.72
X10.18Y-0.82
X10.18Y-0.92
X10.18Y-1.02
X10.18Y-1.12
X10.18Y-1.22
X10.18Y-1.32
X10.18Y-1.42
X10.18Y-1.52
X10.56Y-1.22
X10.56Y-1.52
X10.81Y-1.23
X10.81Y-1.53
X11.08Y-1.22
X11.08Y-1.52
T4
X10.56Y-1.6702
X10.56Y-1.7702
X10.82Y-1.6702
X10.82Y-1.7702
X11.08Y-1.6702
X11.08Y-1.7702
T5
X2.57Y-0.62
X2.67Y-0.62
X2.77Y-0.62
X2.87Y-0.62
X2.97Y-0.62
X7.7608Y-0.8932
X7.8608Y-0.8932
X7.9608Y-0.8932
X8.0608Y-0.8932
X8.1608Y-0.8932
X8.4006Y-0.549
X8.5006Y-0.549
X8.6006Y-0.549
X8.7006Y-0.549
X8.8006Y-0.549
X8.9006Y-0.549
X9.0006Y-0.549
X9.1006Y-0.549
X10.7712Y-0.9032
X10.8712Y-0.9032
T6
X0.59Y-2.82
X0.59Y-2.92
X0.59Y-3.0778
X0.59Y-3.1778
X0.59Y-3.68
X0.59Y-3.78
X0.59Y-3.95
X0.59Y-4.05
X0.8Y-1.44
X0.8Y-1.54
X0.81Y-1.67
X0.81Y-1.77
X0.89Y-0.8778
X0.89Y-0.9778
X1.46Y-1.42
X1.4622Y-1.27
X1.47Y-1.72
X1.4722Y-1.87
X1.56Y-1.42
X1.5622Y-1.27
X1.57Y-1.72
X1.5722Y-1.87
X5.27Y-1.7222
X5.27Y-1.8222
X5.42Y-1.3722
X5.42Y-1.4722
X5.42Y-1.63
X5.42Y-1.73
X5.43Y-0.92
X5.43Y-1.02
X6.05Y-1.7322
X6.05Y-1.8322
X6.1Y-1.0
X6.1322Y-0.8
X6.19Y-1.7322
X6.19Y-1.8322
X6.2Y-1.0
X6.2322Y-0.8
X6.4378Y-1.5
X6.4378Y-1.64
X6.44Y-1.22
X6.44Y-1.36
X6.4422Y-1.78
X6.5378Y-1.5
X6.5378Y-1.64
X6.54Y-1.22
X6.54Y-1.36
X6.5422Y-1.78
X7.16Y-1.7122
X7.16Y-1.8122
X7.21Y-1.44
X7.31Y-1.44
X7.31Y-1.7122
X7.31Y-1.8122
X7.3922Y-0.55
X7.3922Y-0.69
X7.3922Y-0.83
X7.3922Y-0.98
X7.4922Y-0.55
X7.4922Y-0.69
X7.4922Y-0.83
X7.4922Y-0.98
X7.5Y-1.7322
X7.5Y-1.8322
X7.65Y-1.7322
X7.65Y-1.8322
X8.31Y-1.73
X8.31Y-1.83
X9.18Y-1.7222
X9.18Y-1.8222
X9.65Y-1.83
X9.75Y-1.83
X9.9Y-0.7
X9.9Y-1.4
X9.9Y-1.54
X9.9Y-1.68
X9.9022Y-0.84
X9.9022Y-0.98
X9.9022Y-1.12
X9.9022Y-1.26
X9.9022Y-1.82
X10.0Y-0.7
X10.0Y-1.4
X10.0Y-1.54
X10.0Y-1.68
X10.0022Y-0.84
X10.0022Y-0.98
X10.0022Y-1.12
X10.0022Y-1.26
X10.0022Y-1.82
T7
X4.26Y-1.2363
X4.36Y-1.2363
X4.46Y-1.2363
T8
X0.91Y-2.2
X0.91Y-5.24
X1.0Y-2.96
X1.0Y-3.72
X1.16Y-2.1
X1.16Y-5.14
X1.19Y-4.48
X1.25Y-2.86
X1.25Y-3.62
X1.44Y-4.38
X1.67Y-2.2
X1.67Y-5.24
X1.86Y-2.96
X1.92Y-2.1
X1.92Y-5.14
X1.95Y-3.72
X2.11Y-2.86
X2.2Y-3.62
X2.23Y-4.48
X2.43Y-2.2
X2.43Y-5.24
X2.48Y-4.38
X2.62Y-2.96
X2.68Y-2.1
X2.68Y-5.14
X2.81Y-3.72
X2.87Y-2.86
X2.99Y-4.48
X3.06Y-3.62
X3.19Y-2.2
X3.24Y-4.38
X3.38Y-2.96
X3.44Y-2.1
X3.57Y-3.72
X3.63Y-2.86
X3.75Y-4.48
X3.82Y-3.62
X3.95Y-2.2
X4.0Y-4.38
X4.14Y-2.96
X4.2Y-2.1
X4.33Y-3.72
X4.39Y-2.86
X4.51Y-4.48
X4.58Y-3.62
X4.71Y-2.2
X4.76Y-4.38
X4.9Y-2.96
X4.96Y-2.1
X5.09Y-3.72
X5.15Y-2.86
X5.17Y-5.2374
X5.27Y-4.48
X5.34Y-3.62
X5.42Y-5.1374
X5.47Y-2.2
X5.52Y-4.38
X5.66Y-2.96
X5.72Y-2.1
X5.85Y-3.72
X5.91Y-2.86
X6.03Y-4.48
X6.1Y-3.62
X6.23Y-2.2
X6.28Y-4.38
X6.42Y-2.96
X6.48Y-2.1
X6.61Y-3.72
X6.67Y-2.86
X6.79Y-4.48
X6.86Y-3.62
X6.99Y-2.2
X7.04Y-4.38
X7.18Y-2.96
X7.24Y-2.1
X7.37Y-3.72
X7.43Y-2.86
X7.55Y-4.48
X7.62Y-3.62
X7.75Y-2.2
X7.8Y-4.38
X7.94Y-2.96
X8.0Y-2.1
X8.09Y-5.24
X8.13Y-3.72
X8.19Y-2.86
X8.28Y-6.0
X8.31Y-4.48
X8.34Y-5.14
X8.38Y-3.62
X8.51Y-2.2
X8.53Y-5.9
X8.56Y-4.38
X8.7Y-2.96
X8.76Y-2.1
X8.89Y-3.72
X8.95Y-2.86
X9.04Y-5.24
X9.04Y-6.0
X9.07Y-4.48
X9.14Y-3.62
X9.27Y-2.2
X9.29Y-5.14
X9.29Y-5.9
X9.32Y-4.38
X9.46Y-2.96
X9.52Y-2.1
X9.65Y-3.72
X9.71Y-2.86
X9.8Y-6.0
X9.9Y-3.62
X10.05Y-5.9
X10.19Y-5.24
X10.21Y-4.48
X10.32Y-2.2
X10.44Y-5.14
X10.46Y-4.38
X10.5Y-3.34
X10.57Y-2.1
X10.75Y-3.24
T5
G00X3.7028Y-0.7105
M15
G01X3.7028Y-0.6514
M16
G05
G00X3.9056Y-0.7203
M15
G01X3.8544Y-0.7203
M16
G05
G00X3.9194Y-0.9565
M15
G01X3.8406Y-0.9565
M16
G05
G00X4.0572Y-0.7105
M15
G01X4.0572Y-0.6514
M16
G05
T0
M30
